# xmcd
#
# Track frame offsets:
#	150
#	19456
#	49210
#	76151
#	99485
#	116451
#	131529
#	156562
#	175626
#	199491
#	215199
#	245459
#	262782
#
# Disc length: 3754
#
# Revision: 2
# Processed by: cddbd v1.5.1PL0 Copyright (c) Steve Scherf et al.
# Submitted via: CDex 1.50
# Normalized: r0:DSETVAR1,TDELIM( - );r1:TRMNUM
#
DISCID=b60ea80d
DTITLE=Various Artist - Jazzadelic 03.2 - High-Fidelic Jazz Vibes
DYEAR=2003
DGENRE=Jazz
TTITLE0=Orchestra Baobab - Dée Moo Wóor
TTITLE1=R H Factor - Juicy
TTITLE2=Soulive - El Ron
TTITLE3=Gare Du Nord - Kind Of Cool (Inner City Groove)
TTITLE4=Molly Johnson - Melody
TTITLE5=Jazzfatnastees - All Up In My Face
TTITLE6=Cristina Branco - O Meu Amor
TTITLE7=DJ Smash - Kiss
TTITLE8=Stefon Harris - Velvet Couch
TTITLE9=Laura Fygi - Just One Of Those Things
TTITLE10=Marnix Busstra's Second Vision - It's All In The Mind
TTITLE11=The Bad Plus - Big Eater
TTITLE12=Ugress - Spider-Man Theme
EXTD=YEAR: 2003
EXTT0=
EXTT1=
EXTT2=
EXTT3=
EXTT4=
EXTT5=
EXTT6=
EXTT7=
EXTT8=
EXTT9=
EXTT10=
EXTT11=
EXTT12=
PLAYORDER=
